<svg id="Layer_1" data-name="Layer 1" xmlns="http://www.w3.org/2000/svg" xmlns:xlink="http://www.w3.org/1999/xlink" viewBox="0 0 250 300"><defs><style>.cls-1{fill:#989898;}.cls-1,.cls-10,.cls-11,.cls-12,.cls-13,.cls-14,.cls-15,.cls-16,.cls-17,.cls-18,.cls-19,.cls-2,.cls-20,.cls-21,.cls-22,.cls-23,.cls-24,.cls-25,.cls-26,.cls-27,.cls-28,.cls-29,.cls-3,.cls-30,.cls-31,.cls-32,.cls-33,.cls-4,.cls-5,.cls-6,.cls-7,.cls-8,.cls-9{fill-rule:evenodd;}.cls-2{fill:#7f8080;}.cls-3{fill:url(#linear-gradient);}.cls-4{fill:#ccc;}.cls-5{fill:#e5e5e5;}.cls-6{fill:url(#GradientFill_2);}.cls-7{fill:#b3b3b3;}.cls-8{fill:#b08e5e;}.cls-9{fill:#676767;}.cls-10{fill:url(#linear-gradient-2);}.cls-11{fill:#292a69;}.cls-12{fill:url(#GradientFill_4);}.cls-13{fill:url(#GradientFill_5);}.cls-14{fill:url(#GradientFill_6);}.cls-15{fill:url(#GradientFill_7);}.cls-16{fill:url(#GradientFill_8);}.cls-17{fill:url(#GradientFill_9);}.cls-18{fill:url(#GradientFill_10);}.cls-19{fill:url(#GradientFill_11);}.cls-20{fill:url(#GradientFill_6-2);}.cls-21{fill:url(#GradientFill_7-2);}.cls-22{fill:url(#GradientFill_4-2);}.cls-23{fill:url(#GradientFill_5-2);}.cls-24{fill:url(#GradientFill_8-2);}.cls-25{fill:url(#GradientFill_9-2);}.cls-26{fill:url(#GradientFill_10-2);}.cls-27{fill:url(#GradientFill_11-2);}.cls-28{fill:url(#GradientFill_10-3);}.cls-29{fill:url(#GradientFill_11-3);}.cls-30{fill:url(#GradientFill_6-3);}.cls-31{fill:url(#GradientFill_7-3);}.cls-32{fill:url(#GradientFill_6-4);}.cls-33{fill:url(#GradientFill_7-4);}</style><linearGradient id="linear-gradient" x1="97.47" y1="160.11" x2="70.19" y2="227.61" gradientUnits="userSpaceOnUse"><stop offset="0" stop-color="#231f20"/><stop offset="1" stop-color="#b3b3b3"/></linearGradient><linearGradient id="GradientFill_2" x1="98.17" y1="284.58" x2="275" y2="141.39" gradientUnits="userSpaceOnUse"><stop offset="0" stop-color="#dcdbdb"/><stop offset="1" stop-color="#fff"/></linearGradient><linearGradient id="linear-gradient-2" x1="117.48" y1="125.02" x2="107.39" y2="221.05" xlink:href="#linear-gradient"/><linearGradient id="GradientFill_4" x1="136.82" y1="166.06" x2="113.68" y2="90.37" gradientUnits="userSpaceOnUse"><stop offset="0" stop-color="#cad633"/><stop offset="1" stop-color="#fff"/></linearGradient><linearGradient id="GradientFill_5" x1="132.08" y1="150.32" x2="111.43" y2="93.6" gradientUnits="userSpaceOnUse"><stop offset="0" stop-color="#acc537"/><stop offset="0.42" stop-color="#396239"/><stop offset="1" stop-color="#acc537"/></linearGradient><linearGradient id="GradientFill_6" x1="69.96" y1="89.54" x2="190.48" y2="-8.05" gradientUnits="userSpaceOnUse"><stop offset="0" stop-color="#eb3c78"/><stop offset="1" stop-color="#fff"/></linearGradient><linearGradient id="GradientFill_7" x1="88.27" y1="88.71" x2="204.95" y2="-12.71" gradientUnits="userSpaceOnUse"><stop offset="0" stop-color="#b92b44"/><stop offset="0.42" stop-color="#5a2b3a"/><stop offset="1" stop-color="#b92b44"/></linearGradient><linearGradient id="GradientFill_8" x1="112.4" y1="163.88" x2="75.02" y2="158.62" gradientUnits="userSpaceOnUse"><stop offset="0" stop-color="#4fc7e2"/><stop offset="1" stop-color="#fff"/></linearGradient><linearGradient id="GradientFill_9" x1="102.01" y1="165.77" x2="77.93" y2="157.01" gradientUnits="userSpaceOnUse"><stop offset="0" stop-color="#08829e"/><stop offset="0.42" stop-color="#1d4a5a"/><stop offset="1" stop-color="#08829e"/></linearGradient><linearGradient id="GradientFill_10" x1="97.68" y1="213.14" x2="143.57" y2="149.97" gradientUnits="userSpaceOnUse"><stop offset="0" stop-color="#755fa9"/><stop offset="1" stop-color="#fff"/></linearGradient><linearGradient id="GradientFill_11" x1="118.23" y1="195.14" x2="117.77" y2="169.05" gradientUnits="userSpaceOnUse"><stop offset="0" stop-color="#503694"/><stop offset="0.42" stop-color="#413478"/><stop offset="1" stop-color="#503694"/></linearGradient><linearGradient id="GradientFill_6-2" x1="129.48" y1="226.01" x2="189.25" y2="103.47" xlink:href="#GradientFill_6"/><linearGradient id="GradientFill_7-2" x1="54.81" y1="404.5" x2="373.07" y2="-310.31" xlink:href="#GradientFill_7"/><linearGradient id="GradientFill_4-2" x1="51.28" y1="68.99" x2="51.85" y2="36.15" xlink:href="#GradientFill_4"/><linearGradient id="GradientFill_5-2" x1="54.75" y1="148.47" x2="49.64" y2="-144.75" xlink:href="#GradientFill_5"/><linearGradient id="GradientFill_8-2" x1="190.35" y1="126.54" x2="202.38" y2="81.64" xlink:href="#GradientFill_8"/><linearGradient id="GradientFill_9-2" x1="77.38" y1="354.79" x2="454.85" y2="-419.14" xlink:href="#GradientFill_9"/><linearGradient id="GradientFill_10-2" x1="-14.57" y1="177.59" x2="117.91" y2="1.79" xlink:href="#GradientFill_10"/><linearGradient id="GradientFill_11-2" x1="48.43" y1="235.98" x2="41.04" y2="-187.66" xlink:href="#GradientFill_11"/><linearGradient id="GradientFill_10-3" x1="148.41" y1="44.5" x2="254.33" y2="27.72" xlink:href="#GradientFill_10"/><linearGradient id="GradientFill_11-3" x1="184.44" y1="47.5" x2="206.02" y2="25.15" xlink:href="#GradientFill_11"/><linearGradient id="GradientFill_6-3" x1="72.23" y1="171.12" x2="72.23" y2="83.68" xlink:href="#GradientFill_6"/><linearGradient id="GradientFill_7-3" x1="70.91" y1="195.57" x2="67.4" y2="-5.5" xlink:href="#GradientFill_7"/><linearGradient id="GradientFill_6-4" x1="216.05" y1="105.46" x2="216.05" y2="44.38" xlink:href="#GradientFill_6"/><linearGradient id="GradientFill_7-4" x1="215.12" y1="122.55" x2="212.67" y2="-17.95" xlink:href="#GradientFill_7"/></defs><title>percent-box</title><polygon class="cls-1" points="125 206.46 124.81 298.58 120.59 297.53 44.56 254.11 41.01 188.51 80.47 205.63 125 206.46"/><polygon class="cls-2" points="80.47 205.63 0 170.71 0.53 169.16 80.41 203.16 80.47 205.63"/><polygon class="cls-3" points="123.7 206.51 92.44 221.72 41.61 199.47 41.01 188.51 80.47 205.63 123.7 206.51"/><polygon class="cls-4" points="0.53 169.16 41.9 173.13 122.91 204.31 80.41 203.16 0.53 169.16"/><polygon class="cls-5" points="125 206.46 122.91 204.31 80.41 203.16 80.47 205.49 125 206.46"/><polygon class="cls-6" points="125 206.46 124.81 298.58 129.41 297.53 205.44 254.11 208.99 188.51 169.53 205.63 125 206.46"/><polygon class="cls-5" points="169.53 205.63 250 170.71 249.47 169.16 169.59 203.16 169.53 205.63"/><polygon class="cls-1" points="249.47 169.16 208.1 173.13 127.09 204.31 169.59 203.16 249.47 169.16"/><polygon class="cls-2" points="125 206.46 127.09 204.31 169.59 203.16 169.53 205.49 125 206.46"/><polygon class="cls-7" points="125 206.46 125 148.23 123.25 148.23 41.68 171.92 41.9 173.13 122.91 204.31 125 206.46"/><polygon class="cls-4" points="41.68 171.92 14.85 147.13 95.43 127.18 123.25 148.23 41.68 171.92"/><polygon class="cls-8" points="14.85 147.13 14.61 148.57 41.9 173.13 41.68 171.92 14.85 147.13"/><polygon class="cls-9" points="125 206.46 125 148.23 126.75 148.23 208.32 171.92 208.1 173.13 127.09 204.31 125 206.46"/><polygon class="cls-1" points="208.32 171.92 235.15 147.13 154.57 127.18 126.75 148.23 208.32 171.92"/><polygon class="cls-5" points="235.15 147.13 235.39 148.57 208.1 173.13 208.32 171.92 235.15 147.13"/><polygon class="cls-10" points="125 206.46 125 148.23 94.22 193.27 122.91 204.31 125 206.46"/><polygon class="cls-11" points="205.44 254.11 205.07 255.39 130.51 298.62 124.58 300 119.81 298.97 42.74 254.38 44.56 254.11 120.59 297.53 124.81 298.58 129.41 297.53 205.44 254.11"/><path class="cls-12" d="M108.66,107.65c.46,9.32,14.24,12.2,19.89,5.72,3.12-3.58,1.23-8.49-2-11.13a13.09,13.09,0,0,0-12.07-1.88,8.14,8.14,0,0,0-5.78,7.29Zm6.43-.9c1.28-3.53,7.24-2.89,8.61.22a3.26,3.26,0,0,1-2.23,4.38,5.5,5.5,0,0,1-5.2-1,3.41,3.41,0,0,1-1.18-3.56Zm37.57,10.76c-.31,2.32-2.53,2.91-4.4,3.57L137,125l-32.75,11.54a9.25,9.25,0,0,1-3,.69,5.53,5.53,0,0,1-5.19-3,4.74,4.74,0,0,1,1.63-5.55,9.68,9.68,0,0,1,3-1.36l33.34-11,11.29-3.73c3.08-1,7.68,1.3,7.26,4.91Zm-8.86,26.26c0-9.11-10.61-15.44-18.73-11a10.21,10.21,0,0,0-5.18,10.91,12.6,12.6,0,0,0,8.1,9.25,13.2,13.2,0,0,0,10.6-.77,10.12,10.12,0,0,0,5.21-8.38Zm-7.2-.05a4.75,4.75,0,0,0-2-5.37c-3.57-2.39-9.19.23-7.61,4.87C128.44,147.33,135.06,148.13,136.6,143.72Z" transform="translate(0 0)"/><path class="cls-13" d="M115.09,106.75c1.28-3.53,7.24-2.89,8.61.22a3.26,3.26,0,0,1-2.23,4.38,5.5,5.5,0,0,1-5.2-1,3.41,3.41,0,0,1-1.18-3.56Zm-6.6,9.29a9.2,9.2,0,0,0,5.4,7L128,118.34c.74-2.24,1.18-4.62,1.71-6.94a6.45,6.45,0,0,1-1.19,2c-5.53,6.34-18.82,3.73-19.84-5.11-.09,2.59-.35,5.19-.22,7.78ZM95.81,133.25a4.88,4.88,0,0,0,.29,1,5.53,5.53,0,0,0,5.19,3,9.25,9.25,0,0,0,3-.69L137,125l11.23-4c1.46-.51,3.14-1,4-2.28l-2.12,4.14a18.05,18.05,0,0,1-1.82,3.31c-.9,1.08-2.6,1.44-3.87,1.91l-10.06,3.67a12.13,12.13,0,0,0-9.27.93,10.35,10.35,0,0,0-4,3.92l-10.63,3.88-5.69,2.08a8.41,8.41,0,0,1-3.33.78A4.88,4.88,0,0,1,96.75,140a58.81,58.81,0,0,1-.94-6.78Zm31.49,10.6a4.8,4.8,0,0,1,3.48-.26,4.9,4.9,0,0,1,3.11,2.83,4.25,4.25,0,0,0,2.71-2.7,4.75,4.75,0,0,0-2-5.37c-3.57-2.39-9.19.23-7.61,4.87a6,6,0,0,0,.27.63Zm-7.51-3.59c-.88,4.07-2.15,8.33,0,12.21a11.9,11.9,0,0,0,10.44,6.12,10.77,10.77,0,0,0,7.45-2.92c1.89-1.8,3.08-4.43,4.39-6.68a9.21,9.21,0,0,1-3.47,3.16,13.2,13.2,0,0,1-10.6.77,12.6,12.6,0,0,1-8.1-9.25A9.33,9.33,0,0,1,119.79,140.26Z" transform="translate(0 0)"/><path class="cls-14" d="M79.18,10.61C76,15.76,74.9,21.85,77.62,27.46A18,18,0,0,0,90.6,37c11,1.88,22.49-3.69,26.46-14.28,3.85-10.28-3.75-19.93-13.67-22.18C94.2-1.6,84.46,3.27,79.18,10.61Zm11.45,3.13c3.11-3.15,8.64-4.06,12.33-1.36s3.48,7.81.44,10.95-8.84,4.32-12.55,1.39c-3.52-2.79-3.2-7.93-.22-11Zm34.56,48.81a20.84,20.84,0,0,0,7.69,28.27c10.26,6,24.53,3.34,31.75-6.14a20.5,20.5,0,0,0-4.54-29.11,24.21,24.21,0,0,0-34.9,7Zm12.86,3.93a10.5,10.5,0,0,1,13.54-1.31,8.48,8.48,0,0,1,.91,13.27,10.56,10.56,0,0,1-12.95,1.12,8.75,8.75,0,0,1-1.5-13.08ZM76,73.26c8.19-8.82,17.48-16.82,26.17-25.16l36.68-35.2,7.34-7c4.1-3.94,11.9-4,15.44.74,2.83,3.77,1.51,8.19-1.61,11.25l-9.84,9.65L112.77,64.15c-7.51,7.37-14.72,15.33-22.67,22.24-3.57,3.11-9.45,4.19-13.46,1.23C71.86,84.11,72.3,77.37,76,73.26Z" transform="translate(0 0)"/><path class="cls-15" d="M95.6,26.42a10.43,10.43,0,0,1,7.6-2.88l.2-.21c3-3.14,3.28-8.22-.44-10.95s-9.22-1.79-12.33,1.36h0c-3,3-3.3,8.19.22,11a8.12,8.12,0,0,0,4.75,1.7ZM78.17,28.49A18.15,18.15,0,0,0,90.6,37c11,1.88,22.49-3.69,26.46-14.28a15.18,15.18,0,0,0,.77-8.13c1,3.57,2.07,7.12,3,10.71a17.72,17.72,0,0,1,.55,4.39L102.13,48.1l-.78.74a19.37,19.37,0,0,1-14.88-5.29c-4-4-5.9-10.07-8.3-15.06ZM138.86,79c2.36-5.35,11-6.82,15.37-2.81a8.45,8.45,0,0,0-2.64-11,10.5,10.5,0,0,0-13.54,1.31A8.74,8.74,0,0,0,138.86,79ZM74.92,86a8.24,8.24,0,0,0,1.72,1.66c4,3,9.89,1.88,13.46-1.23,8-6.91,15.16-14.87,22.67-22.24L150.14,27.5,160,17.85a9.77,9.77,0,0,0,3.17-6.6c.19,3,.43,6,.61,8.92.13,2.25.55,4.64-.27,6.81-1,2.55-3.45,4.48-5.35,6.36L139.29,52a24.24,24.24,0,0,0-10.1,5.56,25,25,0,0,0-4,4.95,22.36,22.36,0,0,0-2.12,5.6L97.33,93.7c-2.88,2.86-6.21,5-10.55,4.39C81.14,97.23,77.89,90.3,74.92,86Zm52.63,4.77c-1.36-3.29-2.34-6.68-3.5-10a20.83,20.83,0,0,0,8.83,10.13c10.26,6,24.53,3.34,31.75-6.14a20.17,20.17,0,0,0,4.15-11.77c0,.33.08.65.1,1,.29,6.1,1.21,11.91-1.79,17.52a21.92,21.92,0,0,1-11.92,10.07A22.31,22.31,0,0,1,127.55,90.73Z" transform="translate(0 0)"/><path class="cls-16" d="M74.34,167.53c5.86,1,9.53-7.07,6.27-11.42-1.79-2.41-5.1-1.92-7.19-.27A8.15,8.15,0,0,0,70.61,163a5.12,5.12,0,0,0,3.73,4.54Zm.32-4.06c-2-1.27-.81-4.84,1.31-5.26a2.08,2.08,0,0,1,2.43,2A3.42,3.42,0,0,1,77,163.22a2.18,2.18,0,0,1-2.37.25Zm11.82-21.6c1.39.51,1.46,1.95,1.61,3.19l.93,7.43,2.7,21.68a5.69,5.69,0,0,1,0,1.93,3.46,3.46,0,0,1-2.57,2.77,3,3,0,0,1-3.23-1.75,6,6,0,0,1-.43-2.05q-1.16-11-2.3-22-.37-3.71-.77-7.43c-.21-2,1.85-4.54,4-3.79Zm15.1,9c-5.66-1.23-11,4.41-9.4,10a6.52,6.52,0,0,0,6.07,4.67,8,8,0,0,0,6.86-3.71,8.21,8.21,0,0,0,1-6.62,6.41,6.41,0,0,0-4.49-4.34Zm-1,4.41c2.53,1.56,1.13,5.51-1.62,5.81-3.1.34-4-3.47-2-5.34A3.07,3.07,0,0,1,100.57,155.3Z" transform="translate(0 0)"/><path class="cls-17" d="M74.66,163.47c-2-1.27-.81-4.84,1.31-5.26a2.08,2.08,0,0,1,2.43,2A3.42,3.42,0,0,1,77,163.22a2.18,2.18,0,0,1-2.37.25Zm4.87,5.32a5.92,5.92,0,0,0,5.08-2.37l-1-9.32c-1.29-.76-2.71-1.35-4.08-2a4,4,0,0,1,1.06,1c3.19,4.25-.25,12.06-5.88,11.47,1.6.42,3.18.93,4.8,1.21Zm9,10.13h0a39.46,39.46,0,0,0,4.34.35,3.11,3.11,0,0,0,2.74-2.4,5.37,5.37,0,0,0,0-2.15c-.17-1.26-.34-2.52-.52-3.78l-1-7.05a6.58,6.58,0,0,1-1.89-3,7.55,7.55,0,0,1,.69-5.82L92,148.39a5.55,5.55,0,0,0-.65-2.64,11.73,11.73,0,0,0-1.81-1.56l-2.29-1.87a4.42,4.42,0,0,1,.88,2.74l.93,7.43,2.7,21.68a5.69,5.69,0,0,1,0,1.93,3.46,3.46,0,0,1-2.57,2.77,2.56,2.56,0,0,1-.67,0ZM99.38,161a3,3,0,0,1-.43.08c-3.1.34-4-3.47-2-5.34a3.07,3.07,0,0,1,3.61-.47,2.68,2.68,0,0,1,1.3,2,3.12,3.12,0,0,0-2.18,1.52,3,3,0,0,0-.31,2.17Zm-3.26,4.12c2.41,1.1,4.88,2.46,7.59,1.68a7.49,7.49,0,0,0,5.22-5.58,6.71,6.71,0,0,0-.79-5,18.38,18.38,0,0,0-3.55-3.61,5.77,5.77,0,0,1,1.48,2.56,8.21,8.21,0,0,1-1,6.62,8,8,0,0,1-6.86,3.71A6.11,6.11,0,0,1,96.12,165.15Z" transform="translate(0 0)"/><path class="cls-18" d="M109,176.69c1.15,4.33,7.9,4.33,9.9.73,1.11-2-.27-4.1-2.06-5a6.31,6.31,0,0,0-5.85.31,3.9,3.9,0,0,0-2,4Zm2.93-1.05c.25-1.78,3.11-2.07,4.06-.74a1.56,1.56,0,0,1-.61,2.27,2.64,2.64,0,0,1-2.54,0,1.63,1.63,0,0,1-.91-1.55ZM130.62,177c.08,1.12-.89,1.62-1.71,2.11l-4.87,3-14.21,8.63a4.37,4.37,0,0,1-1.33.62,2.64,2.64,0,0,1-2.73-.9,2.25,2.25,0,0,1,.21-2.76,4.46,4.46,0,0,1,1.29-.94l14.54-8.45,4.92-2.86c1.34-.78,3.73-.14,3.89,1.59Zm-1.54,13.18a6.2,6.2,0,0,0-9.88-3.31,4.88,4.88,0,0,0-1.34,5.62,6.05,6.05,0,0,0,4.71,3.54,6.28,6.28,0,0,0,4.9-1.4,4.84,4.84,0,0,0,1.61-4.45Zm-3.38.69a2.28,2.28,0,0,0-1.46-2.32c-1.91-.77-4.28,1-3.08,3C122.23,193.36,125.41,193.08,125.7,190.86Z" transform="translate(0 0)"/><path class="cls-19" d="M111.93,175.64c.25-1.78,3.11-2.07,4.06-.74a1.56,1.56,0,0,1-.61,2.27,2.64,2.64,0,0,1-2.54,0,1.63,1.63,0,0,1-.91-1.55Zm-2.17,5a4.44,4.44,0,0,0,3.23,2.74l6.16-3.59c.12-1.12.1-2.28.11-3.42a3,3,0,0,1-.36,1c-2,3.52-8.45,3.6-9.81-.45.21,1.23.35,2.47.67,3.68ZM105.53,190a2,2,0,0,0,.24.45,2.64,2.64,0,0,0,2.73.9,4.37,4.37,0,0,0,1.33-.62L124,182.06l4.87-3c.64-.39,1.37-.78,1.63-1.46-.2.71-.39,1.43-.58,2.15a8.65,8.65,0,0,1-.53,1.73c-.31.59-1.07.93-1.62,1.28l-4.35,2.71a5.74,5.74,0,0,0-4.26,1.35,4.9,4.9,0,0,0-1.49,2.23l-4.6,2.86-2.46,1.54a4.06,4.06,0,0,1-1.49.69,2.34,2.34,0,0,1-2.52-1.13,32.26,32.26,0,0,1-1.12-3.08Zm15.82,1.88a2.33,2.33,0,0,1,1.6-.47,2.41,2.41,0,0,1,1.75,1,2,2,0,0,0,1-1.53,2.28,2.28,0,0,0-1.46-2.32c-1.91-.77-4.28,1-3.08,3l.19.27Zm-3.88-1c0,2-.18,4.12,1.21,5.73a5.7,5.7,0,0,0,5.5,1.84,5.15,5.15,0,0,0,3.21-2.1,13.8,13.8,0,0,0,1.39-3.57,4.37,4.37,0,0,1-1.31,1.83,6.28,6.28,0,0,1-4.9,1.4,6.05,6.05,0,0,1-4.71-3.54A4.47,4.47,0,0,1,117.47,190.89Z" transform="translate(0 0)"/><path class="cls-20" d="M150.16,163a6.37,6.37,0,0,0,8.57-.67,6.72,6.72,0,0,0,.14-8.93,6.36,6.36,0,0,0-8.64-.54,6.69,6.69,0,0,0-1.34,8.73,7.37,7.37,0,0,0,1.27,1.41Zm1.77-3.57a2.75,2.75,0,0,1,.69-3.82,2.68,2.68,0,0,1,3.74.7c1.8,2.85-2.43,6-4.43,3.12Zm13.69,24.45a6.78,6.78,0,0,0-1.93-8.83,6.44,6.44,0,0,0-8.66,1.16,6.83,6.83,0,0,0,.47,8.91,6.54,6.54,0,0,0,8.84.29,6.94,6.94,0,0,0,1.28-1.53Zm-3.56-1.71c-2.25,2.72-6.37-.9-4.17-3.56a2.75,2.75,0,0,1,3.84-.36,2.85,2.85,0,0,1,.33,3.92ZM172.36,166c-1.25.62-2.59,1.1-3.88,1.64l-8.63,3.61-13.14,5.5a5.72,5.72,0,0,1-2.86.78,2.94,2.94,0,0,1-2.26-3.9,3.7,3.7,0,0,1,2.42-2.11l4.88-2.1,14.74-6.34,5.23-2.24a5,5,0,0,1,2.48-.67C174.54,160.45,175,164.61,172.36,166Z" transform="translate(0 0)"/><path class="cls-21" d="M154.71,164.86a6.11,6.11,0,0,0,7-4.28,6.25,6.25,0,0,0-.34-4.42,10.81,10.81,0,0,0-3-3.27,5.9,5.9,0,0,1,.51.49,6.72,6.72,0,0,1-.14,8.93,6.32,6.32,0,0,1-6.44,1.75h0c.81.26,1.6.59,2.42.8Zm3.55-12.05-.1-.09,0,0,.06.05Zm-4.15,7.73a2.41,2.41,0,0,1-2.18-1.13h0a2.75,2.75,0,0,1,.69-3.82,2.68,2.68,0,0,1,3.74.7l0,.08a2.64,2.64,0,0,0-2.55,1.2,2.56,2.56,0,0,0,.25,3Zm7.59,22c-2.73.22-3.63-3.78-1.37-4.89a2.75,2.75,0,0,0-2.44,1c-2.09,2.53,1.52,5.91,3.81,3.93Zm5.5-.27a5.27,5.27,0,0,1-1.56,2.26,12.59,12.59,0,0,1-1.84,1.3,5.56,5.56,0,0,0,.54-.42,6.94,6.94,0,0,0,1.28-1.53,6.78,6.78,0,0,0-1.93-8.83,6.25,6.25,0,0,0-3.2-1.15,7.73,7.73,0,0,1,3.27.41,6.58,6.58,0,0,1,2.81,2.3,6.1,6.1,0,0,1,.63,5.66Zm5.88-15.7c-1.87.92-3.87,1.62-5.8,2.43L152.6,175.1,148.09,177a11.5,11.5,0,0,1-3.51.55,9.52,9.52,0,0,0,2.13-.77l13.14-5.5,8.63-3.61c1.29-.54,2.63-1,3.88-1.64a3.2,3.2,0,0,0,1.21-4.58h0a3.86,3.86,0,0,1,1.16,2.74A3.08,3.08,0,0,1,173.08,166.55Z" transform="translate(0 0)"/><path class="cls-22" d="M45.47,65.54a4,4,0,0,0,3.9-.52,4.14,4.14,0,0,0,1.48-3.4,5.46,5.46,0,0,0-4.61-5.18,4,4,0,0,0-4.32,4.21,5.58,5.58,0,0,0,3.55,4.89Zm.11-2.72a2.25,2.25,0,0,1-.94-2.69,1.68,1.68,0,0,1,2.46-.67,2.22,2.22,0,0,1,1,2.74,1.74,1.74,0,0,1-2.48.62Zm9.28-10.27a4.86,4.86,0,0,0,6-3.18,5.7,5.7,0,0,0-3-6.79,4.79,4.79,0,0,0-6.36,2.52,5.68,5.68,0,0,0,2.05,6.81,5.62,5.62,0,0,0,1.33.64Zm.23-3.08a2.39,2.39,0,0,1-1-3,2,2,0,0,1,3-.89A2.38,2.38,0,0,1,58,48.46a2,2,0,0,1-2.88,1ZM59.83,63c-2.42-1.38-4.71-3.05-7-4.56l-9.88-6.4-2-1.28a2.48,2.48,0,0,1-.63-3.5,1.94,1.94,0,0,1,2.63-.22l2.7,1.71,10.24,6.47c2.05,1.3,4.23,2.51,6.21,3.93a2.54,2.54,0,0,1,1,3A2.29,2.29,0,0,1,59.83,63Z" transform="translate(0 0)"/><path class="cls-23" d="M48.2,61.05a2.4,2.4,0,0,1-1-1.55l-.06,0a1.68,1.68,0,0,0-2.46.67,2.25,2.25,0,0,0,.94,2.69h0a1.74,1.74,0,0,0,2.48-.62,1.84,1.84,0,0,0,.14-1.15Zm1.37,3.8a4.19,4.19,0,0,0,1.28-3.23,5.46,5.46,0,0,0-4.61-5.18,3.64,3.64,0,0,0-1.88.24c.76-.41,1.51-.83,2.27-1.22a4.2,4.2,0,0,1,1-.35l5.18,3.36.21.13a4.44,4.44,0,0,1-.43,3.61,12.63,12.63,0,0,1-3,2.64Zm8.32-16.21a2.36,2.36,0,0,1-1.43-3.3,2,2,0,0,0-2.37,1.17,2.39,2.39,0,0,0,1,3,2,2,0,0,0,2.8-.83Zm4.87,14a1.49,1.49,0,0,0,.29-.47,2.54,2.54,0,0,0-1-3c-2-1.42-4.16-2.63-6.21-3.93L45.63,48.78l-2.7-1.71a2.34,2.34,0,0,0-1.66-.37l2-.59a3.69,3.69,0,0,1,1.56-.29,4.8,4.8,0,0,1,1.72.86l5.21,3.26a5.51,5.51,0,0,0,1.78,2,5.62,5.62,0,0,0,1.33.64,5.1,5.1,0,0,0,1.38.19l7.12,4.44a2.77,2.77,0,0,1,1.54,2.14c.1,1.31-1.3,2.4-2.14,3.28Zm-1.63-12c-.68.47-1.4.87-2.1,1.3a4.76,4.76,0,0,0,1.84-2.5,5.7,5.7,0,0,0-3-6.79A4.74,4.74,0,0,0,55,42.26l.21-.08c1.37-.38,2.64-.88,4.06-.5a5.15,5.15,0,0,1,1.9,8.89Z" transform="translate(0 0)"/><path class="cls-24" d="M187,97.55a8,8,0,0,0,10.81.08A8.43,8.43,0,0,0,199,86.46a8,8,0,0,0-10.76-1.59,8.41,8.41,0,0,0-2.61,10.79A9,9,0,0,0,187,97.55Zm2.6-4.28a3.47,3.47,0,0,1,1.28-4.71,3.37,3.37,0,0,1,4.61,1.28c1.95,3.76-3.69,7.24-5.89,3.43Zm14.53,32.08a8.53,8.53,0,0,0-1.47-11.27,8.11,8.11,0,0,0-11,.54,8.59,8.59,0,0,0-.36,11.21,8.22,8.22,0,0,0,11,1.3,9,9,0,0,0,1.77-1.78Zm-4.28-2.52c-3.11,3.16-7.88-1.8-4.84-4.9a3.43,3.43,0,0,1,4.84,0,3.57,3.57,0,0,1,0,4.94Zm14.63-19.12c-1.63.64-3.36,1.1-5,1.64L198.28,109l-17.05,5.49c-1.16.38-2.42,1-3.66.68a3.69,3.69,0,0,1-2.41-5.13c.63-1.43,1.89-1.92,3.25-2.38l6.34-2.11,19.14-6.37,6.79-2.26a6.48,6.48,0,0,1,3.18-.57C217.84,97,218,102.24,214.51,103.71Z" transform="translate(0 0)"/><path class="cls-25" d="M192.53,100.39a7.69,7.69,0,0,0,9.28-4.6,7.89,7.89,0,0,0,.05-5.58,13.78,13.78,0,0,0-3.47-4.42,7.32,7.32,0,0,1,.58.67,8.43,8.43,0,0,1-1.13,11.17,8,8,0,0,1-8.25,1.51h0c1,.42,1.94.91,2.94,1.26Zm5.75-14.71-.12-.12.05,0,.07.07Zm-6,9.24a3,3,0,0,1-2.61-1.65h0a3.47,3.47,0,0,1,1.28-4.71,3.37,3.37,0,0,1,4.61,1.28.93.93,0,0,1,0,.1,3.33,3.33,0,0,0-3.31,1.23,3.21,3.21,0,0,0,0,3.75Zm7.15,28.33c-3.45,0-4.14-5.11-1.19-6.26a3.46,3.46,0,0,0-3.16.94c-2.89,2.94,1.26,7.56,4.35,5.32Zm6.92.25a6.72,6.72,0,0,1-2.21,2.67,16.47,16.47,0,0,1-2.44,1.43,7,7,0,0,0,.73-.47,9,9,0,0,0,1.77-1.78,8.53,8.53,0,0,0-1.47-11.27,8,8,0,0,0-3.89-1.78,9.58,9.58,0,0,1,4,.87,8.27,8.27,0,0,1,3.28,3.17,7.72,7.72,0,0,1,.18,7.16Zm9.05-19c-2.45,1-5,1.62-7.53,2.42l-19,6.11-5.85,1.87a14.42,14.42,0,0,1-4.45.33,11.7,11.7,0,0,0,2.74-.75L198.28,109l11.19-3.6c1.68-.54,3.41-1,5-1.64a4,4,0,0,0,2-5.61h0c.69,1.12,1.41,2.18,1.15,3.56A3.87,3.87,0,0,1,215.36,104.46Z" transform="translate(0 0)"/><path class="cls-26" d="M54.55,88.08a7.38,7.38,0,0,0-.08,10,8,8,0,0,0,10.5,1,7.35,7.35,0,0,0,1.51-10,8,8,0,0,0-10.15-2.43,8.57,8.57,0,0,0-1.78,1.34Zm4,2.41A3.28,3.28,0,0,1,63,91.68,3.12,3.12,0,0,1,61.8,96c-3.53,1.8-6.81-3.43-3.23-5.48ZM28.42,104A8.09,8.09,0,0,0,39,102.62a7.45,7.45,0,0,0-.51-10.19A8.12,8.12,0,0,0,28,92.09a7.57,7.57,0,0,0-1.23,10.26A9,9,0,0,0,28.42,104Zm2.37-4c-3-2.89,1.69-7.32,4.6-4.5a3.17,3.17,0,0,1,0,4.5,3.38,3.38,0,0,1-4.64,0Zm18,13.6c-.61-1.52-1-3.13-1.54-4.69l-3.39-10.4L38.67,82.69a6.63,6.63,0,0,1-.64-3.4,3.47,3.47,0,0,1,4.82-2.24c1.35.59,1.81,1.75,2.24,3q1,2.94,2,5.89,3,8.88,6,17.78,1.05,3.15,2.12,6.31a5.79,5.79,0,0,1,.53,3C55.09,116.7,50.14,116.85,48.76,113.61Z" transform="translate(0 0)"/><path class="cls-27" d="M51.88,93.19a7.11,7.11,0,0,0,4.33,8.61,7.5,7.5,0,0,0,5.24.06,13.2,13.2,0,0,0,4.16-3.23,6.76,6.76,0,0,1-.64.54,8,8,0,0,1-10.5-1,7.32,7.32,0,0,1-1.41-7.67h0c-.38.91-.85,1.8-1.18,2.74Zm13.83,5.33.11-.1,0,0-.07.06ZM57,92.92a2.84,2.84,0,0,1,1.55-2.43h0A3.28,3.28,0,0,1,63,91.68,3.12,3.12,0,0,1,61.8,96l-.1,0A3,3,0,0,0,57,92.92ZM30.39,99.56c0-3.21,4.81-3.85,5.89-1.11a3.2,3.2,0,0,0-.89-2.94c-2.76-2.67-7.11,1.18-5,4ZM30.15,106a6.3,6.3,0,0,1-2.5-2,15.28,15.28,0,0,1-1.35-2.27,7.15,7.15,0,0,0,.44.68A9,9,0,0,0,28.42,104,8.09,8.09,0,0,0,39,102.62,7.26,7.26,0,0,0,40.68,99a8.94,8.94,0,0,1-.81,3.77,7.8,7.8,0,0,1-3,3,7.34,7.34,0,0,1-6.73.17Zm17.91,8.4c-.9-2.27-1.53-4.67-2.28-7Q42.9,98.57,40,89.71l-1.77-5.43a13.06,13.06,0,0,1-.3-4.14,11.35,11.35,0,0,0,.7,2.55l5.16,15.83,3.39,10.4c.51,1.56.93,3.17,1.54,4.69A3.81,3.81,0,0,0,54,115.48h0c-1.05.65-2,1.32-3.34,1.07A3.61,3.61,0,0,1,48.06,114.39Z" transform="translate(0 0)"/><path class="cls-28" d="M193.9,20.61c-3.09,5.2,3.3,11.63,8.67,10.14,3-.82,3.71-4.14,2.89-6.72a8.39,8.39,0,0,0-5.82-5.29,5.3,5.3,0,0,0-5.74,1.87Zm3.79,1.8c1.95-1.45,4.94,1,4.56,3.17a2.1,2.1,0,0,1-2.77,1.57,3.51,3.51,0,0,1-2.43-2.4,2.2,2.2,0,0,1,.64-2.34Zm16.4,19.12c-1,1.14-2.41.67-3.66.37L203,40.05l-21.8-5.39A6,6,0,0,1,179.3,34a3.55,3.55,0,0,1-1.72-3.46,3.08,3.08,0,0,1,2.87-2.41,6.17,6.17,0,0,1,2.13.34l21.93,5.88,7.42,2c2,.54,3.68,3.42,2.16,5.22Zm-14.2,11c3.26-4.91-.19-12.08-6.15-12.57A6.66,6.66,0,0,0,187,44a8.09,8.09,0,0,0,1.05,7.85,8.52,8.52,0,0,0,6,3.35,6.61,6.61,0,0,0,5.81-2.68ZM196,50c-2.42,1.83-5.7-.95-5-3.66.81-3.07,4.78-2.49,5.84.07A3.08,3.08,0,0,1,196,50Z" transform="translate(0 0)"/><path class="cls-29" d="M197.69,22.41c1.95-1.45,4.94,1,4.56,3.17a2.1,2.1,0,0,1-2.77,1.57,3.51,3.51,0,0,1-2.43-2.4,2.2,2.2,0,0,1,.64-2.34Zm-6.89,2.67a5.92,5.92,0,0,0,.41,5.68l9.3,2.49c1.2-1,2.3-2.08,3.41-3.14a4.11,4.11,0,0,1-1.35.64c-5.25,1.46-11.48-4.66-8.86-9.79-1,1.36-2.05,2.68-2.91,4.12Zm-13,4.78a3.53,3.53,0,0,0-.21.65A3.55,3.55,0,0,0,179.3,34a6,6,0,0,0,1.86.69L203,40.05l7.47,1.85a4.63,4.63,0,0,0,2.95.16l-2.63,1.48a11.5,11.5,0,0,1-2.16,1.15,5.77,5.77,0,0,1-2.78-.35l-6.74-1.58A7.78,7.78,0,0,0,193.74,40a6.83,6.83,0,0,0-3.57.69L183.05,39l-3.82-.9a5.45,5.45,0,0,1-2.07-.76,3.15,3.15,0,0,1-1.3-3.48,38.51,38.51,0,0,1,1.93-4ZM191,46.74a3.08,3.08,0,0,1,2,1.09,3.15,3.15,0,0,1,.67,2.63A2.78,2.78,0,0,0,196,50a3.08,3.08,0,0,0,.86-3.59c-1.06-2.56-5-3.14-5.84-.07a3.29,3.29,0,0,0-.09.43Zm-2.76-4.6c-1.93,1.88-4.15,3.73-4.39,6.58a7.64,7.64,0,0,0,3.44,7,7,7,0,0,0,5.06,1.07,19.1,19.1,0,0,0,4.77-2,6.08,6.08,0,0,1-3,.48,8.52,8.52,0,0,1-6-3.35A8.09,8.09,0,0,1,187,44,6.27,6.27,0,0,1,188.2,42.14Z" transform="translate(0 0)"/><path class="cls-30" d="M80.79,119.86c-4.67.8-5.28,7.85-1.66,10.27,2,1.33,4.35.09,5.49-1.7a6.53,6.53,0,0,0,.2-6.13,4.12,4.12,0,0,0-4-2.44Zm.85,3.15c1.86.42,1.9,3.43.42,4.31a1.67,1.67,0,0,1-2.35-.84,2.72,2.72,0,0,1,.21-2.66,1.75,1.75,0,0,1,1.72-.81ZM78.52,142.4c-1.19,0-1.63-1.08-2.08-2-.89-1.79-1.78-3.57-2.68-5.36l-7.83-15.62A4.63,4.63,0,0,1,65.4,118a2.76,2.76,0,0,1,1.2-2.78,2.41,2.41,0,0,1,2.89.48,4.88,4.88,0,0,1,.88,1.43L78,133.08l2.58,5.4c.7,1.47-.19,3.91-2,3.92Zm-13.79-2.8a6.49,6.49,0,0,0,4.4-10,5.23,5.23,0,0,0-5.82-1.91,6.37,6.37,0,0,0-4.17,4.6,6.54,6.54,0,0,0,1,5.24,5.18,5.18,0,0,0,4.55,2.09Zm-.42-3.6a2.42,2.42,0,0,0,2.59-1.3c1-1.93-.68-4.57-2.93-3.5C62,132.16,62,135.5,64.31,136Z" transform="translate(0 0)"/><path class="cls-31" d="M81.64,123c1.86.42,1.9,3.43.42,4.31a1.67,1.67,0,0,1-2.35-.84,2.72,2.72,0,0,1,.21-2.66,1.75,1.75,0,0,1,1.72-.81Zm-5.09-2.72a4.65,4.65,0,0,0-3.19,3.12l3.23,6.77c1.17.22,2.4.3,3.6.42a3.32,3.32,0,0,1-1.06-.47c-3.54-2.37-3-9.15,1.36-10.2-1.31.11-2.64.14-3.94.36ZM67.09,115a2.65,2.65,0,0,0-.49.2A2.76,2.76,0,0,0,65.4,118a4.63,4.63,0,0,0,.53,1.44l7.83,15.62c.9,1.79,1.79,3.57,2.68,5.36a3.61,3.61,0,0,0,1.4,1.83l-2.22-.81a8.56,8.56,0,0,1-1.78-.7,4.4,4.4,0,0,1-1.2-1.81l-2.47-4.79a6.06,6.06,0,0,0-1-4.57,5.3,5.3,0,0,0-2.22-1.76l-2.61-5.06c-.47-.9-.94-1.8-1.4-2.71a4.19,4.19,0,0,1-.6-1.61,2.46,2.46,0,0,1,1.43-2.53,31.29,31.29,0,0,1,3.36-.89Zm-3.42,16.35a2.37,2.37,0,0,1,.35,1.71,2.49,2.49,0,0,1-1.24,1.73A2.16,2.16,0,0,0,64.31,136a2.42,2.42,0,0,0,2.59-1.3c1-1.93-.68-4.57-2.93-3.5l-.3.18Zm1.35-4c-2.1-.19-4.33-.56-6.16.74a6,6,0,0,0-2.44,5.58,5.33,5.33,0,0,0,1.93,3.54A15,15,0,0,0,62,139.05a4.62,4.62,0,0,1-1.81-1.54,6.54,6.54,0,0,1-1-5.24,6.37,6.37,0,0,1,4.17-4.6A4.81,4.81,0,0,1,65,127.41Z" transform="translate(0 0)"/><path class="cls-32" d="M222,69.65c-3.27.56-3.69,5.48-1.16,7.17,1.39.93,3,.07,3.83-1.19a4.54,4.54,0,0,0,.15-4.28,2.9,2.9,0,0,0-2.82-1.7Zm.59,2.2c1.3.29,1.33,2.4.3,3a1.17,1.17,0,0,1-1.65-.59,1.9,1.9,0,0,1,.15-1.86,1.23,1.23,0,0,1,1.2-.56ZM220.44,85.4c-.83,0-1.13-.76-1.45-1.38l-1.87-3.75q-2.75-5.44-5.47-10.91a3,3,0,0,1-.38-1,1.92,1.92,0,0,1,.84-1.93,1.7,1.7,0,0,1,2,.32,3.58,3.58,0,0,1,.61,1l5.31,11.14,1.8,3.77c.49,1-.13,2.73-1.42,2.74Zm-9.63-2a4.53,4.53,0,0,0,3.07-7,3.64,3.64,0,0,0-4.06-1.34,4.46,4.46,0,0,0-2.92,3.22,4.57,4.57,0,0,0,.73,3.66,3.62,3.62,0,0,0,3.18,1.46Zm-.3-2.51a1.7,1.7,0,0,0,1.81-.92c.69-1.34-.47-3.19-2-2.44C208.89,78.24,208.89,80.58,210.51,80.93Z" transform="translate(0 0)"/><path class="cls-33" d="M222.62,71.85c1.3.29,1.33,2.4.3,3a1.17,1.17,0,0,1-1.65-.59,1.9,1.9,0,0,1,.15-1.86,1.23,1.23,0,0,1,1.2-.56ZM219.07,70a3.26,3.26,0,0,0-2.23,2.18l2.25,4.72c.82.16,1.68.22,2.52.3a2.31,2.31,0,0,1-.74-.33c-2.48-1.65-2.12-6.39.95-7.13-.92.08-1.85.1-2.75.26Zm-6.61-3.68a1.54,1.54,0,0,0-.35.15,1.92,1.92,0,0,0-.84,1.93,3,3,0,0,0,.38,1q2.73,5.46,5.47,10.91L219,84c.25.48.49,1,1,1.27l-1.55-.56a5.6,5.6,0,0,1-1.25-.49,3.11,3.11,0,0,1-.84-1.26l-1.72-3.35a4.21,4.21,0,0,0-.73-3.19,3.65,3.65,0,0,0-1.55-1.23l-1.82-3.53-1-1.9a2.88,2.88,0,0,1-.42-1.12,1.7,1.7,0,0,1,1-1.77,20.65,20.65,0,0,1,2.34-.62Zm-2.39,11.42a1.68,1.68,0,0,1,.24,1.2,1.75,1.75,0,0,1-.86,1.21,1.52,1.52,0,0,0,1.06.83,1.7,1.7,0,0,0,1.81-.92c.69-1.34-.47-3.19-2-2.44l-.21.12Zm.94-2.77c-1.47-.13-3-.39-4.3.52a4.17,4.17,0,0,0-1.71,3.9,3.76,3.76,0,0,0,1.35,2.47,10.33,10.33,0,0,0,2.54,1.24A3.23,3.23,0,0,1,207.63,82a4.57,4.57,0,0,1-.73-3.66,4.46,4.46,0,0,1,2.92-3.22A3.48,3.48,0,0,1,211,74.92Z" transform="translate(0 0)"/></svg>